<svg xmlns="http://www.w3.org/2000/svg" viewBox="0 0 200 200"><defs><style>.cls-1{fill:#8300af;}.cls-2{fill:#b400e0;}.cls-3{fill:#d300ff;}.cls-4{fill:#9500c1;}.cls-5{fill:#c800f4;}</style></defs><g id="Capa_8" data-name="Capa 8"><polygon class="cls-1" points="147.5 17.73 52.5 17.73 5 100 52.5 182.27 147.5 182.27 195 100 147.5 17.73"/><polygon class="cls-2" points="100 100 52.5 17.73 147.5 17.73 100 100"/><polygon class="cls-3" points="5 100 52.5 17.73 100 100 5 100"/><polygon class="cls-2" points="52.5 182.27 100 100 5 100 52.5 182.27"/><polygon class="cls-4" points="195 100 147.5 17.73 100 100 195 100"/><polygon class="cls-4" points="147.5 182.27 52.5 182.27 100 100 147.5 182.27"/><polygon class="cls-5" points="121.03 63.57 78.97 63.57 57.93 100 78.97 136.43 121.03 136.43 142.07 100 121.03 63.57"/></g></svg>
