<svg xmlns="http://www.w3.org/2000/svg" viewBox="0 0 200 200"><defs><style>.cls-1{fill:#a9a900;}.cls-2{fill:#c8c800;}.cls-3{fill:#e7e700;}.cls-4{fill:#979700;}.cls-5{fill:#878700;}.cls-6{fill:#dcdc00;}</style></defs><g id="Capa_8" data-name="Capa 8"><polygon class="cls-1" points="136.54 11.29 100 100 188.21 62.96 136.54 11.29"/><polygon class="cls-2" points="63.46 11.29 100 100 136.54 11.29 63.46 11.29"/><polygon class="cls-3" points="11.79 62.96 100 100 63.46 11.29 11.79 62.96"/><polygon class="cls-2" points="11.79 136.04 100 100 11.79 62.96 11.79 136.04"/><polygon class="cls-1" points="63.46 187.71 11.79 136.04 100 100 63.46 187.71"/><polygon class="cls-4" points="136.54 187.71 63.46 187.71 100 100 136.54 187.71"/><polygon class="cls-5" points="188.21 136.04 136.54 187.71 100 100 188.21 136.04"/><polygon class="cls-4" points="188.21 62.96 188.21 136.04 100 100 188.21 62.96"/><polygon class="cls-6" points="116.18 60.94 83.82 60.94 60.94 83.82 60.94 116.18 83.82 139.06 116.18 139.06 139.06 116.18 139.06 83.82 116.18 60.94"/></g></svg>
