<svg xmlns="http://www.w3.org/2000/svg" viewBox="0 0 200 200"><defs><style>.cls-1{fill:#0095c1;}.cls-2{fill:#0083af;}.cls-3{fill:#00b4e0;}.cls-4{fill:#00d3ff;}.cls-5{fill:#00c8f4;}</style></defs><g id="Capa_8" data-name="Capa 8"><polygon class="cls-1" points="100 11.79 100 100 192.75 79.18 100 11.79 100 11.79"/><polygon class="cls-2" points="157.32 188.21 100 100 192.75 79.18 192.75 79.18 157.32 188.21"/><polygon class="cls-1" points="42.68 188.21 100 100 157.32 188.21 157.32 188.21 42.68 188.21"/><polygon class="cls-3" points="7.25 79.18 100 100 42.68 188.21 42.68 188.21 7.25 79.18"/><polygon class="cls-4" points="7.25 79.18 100 11.79 100 100 7.25 79.18 7.25 79.18"/><polygon class="cls-5" points="100 62.78 100 62.78 139.14 91.21 139.14 91.21 124.19 137.22 124.19 137.22 75.81 137.22 75.81 137.22 60.86 91.21 60.86 91.21 100 62.78"/></g></svg>
