<?xml version="1.0" encoding="UTF-8" standalone="no"?>
<svg version="1.1" viewBox="0 0 20 20" id="svg7" xmlns="http://www.w3.org/2000/svg" xmlns:svg="http://www.w3.org/2000/svg">
  <g fill="#8a6f91" id="g7">
    <g stroke-width=".19506" id="g4">
      <path id="path1" d="M 6.9453125 0.033203125 C 6.8162639 0.039678431 6.6936687 0.097917724 6.6054688 0.19726562 L 2.8652344 4.4160156 L 1.9238281 4.7207031 C 1.7957983 4.7622221 1.7260582 4.8993139 1.7675781 5.0273438 L 1.9160156 5.4863281 L 0.22460938 7.3925781 C 0.11004949 7.521798 0.071686053 7.7027877 0.125 7.8671875 L 3.1328125 17.144531 C 3.2159094 17.400771 3.4918071 17.542084 3.7480469 17.458984 L 19.519531 12.34375 C 19.775771 12.26065 19.917084 11.984755 19.833984 11.728516 L 16.824219 2.4511719 C 16.770909 2.286772 16.635387 2.1643531 16.466797 2.1269531 L 13.976562 1.5742188 L 13.828125 1.1171875 C 13.786606 0.98915763 13.649514 0.91941754 13.521484 0.9609375 L 12.580078 1.265625 L 7.0761719 0.044921875 C 7.0329319 0.035361885 6.9883287 0.03104469 6.9453125 0.033203125 z M 7.1445312 1.0585938 L 10.75 1.859375 L 4.6953125 3.8222656 L 7.1445312 1.0585938 z M 14.326172 2.6503906 L 15.833984 2.984375 L 14.839844 4.2402344 L 14.326172 2.6503906 z M 12.628906 2.7910156 C 12.645375 2.7890404 12.661958 2.7896437 12.677734 2.7910156 C 12.772393 2.7992473 12.857533 2.8629621 12.888672 2.9589844 C 12.930192 3.087014 12.858499 3.2260593 12.730469 3.2675781 L 3.9179688 6.125 C 3.789939 6.16652 3.6528471 6.0967798 3.6113281 5.96875 C 3.5698083 5.8407202 3.6395485 5.7016752 3.7675781 5.6601562 L 12.580078 2.8027344 C 12.596082 2.7975444 12.612437 2.7929908 12.628906 2.7910156 z M 16.111328 3.4179688 L 18.753906 11.566406 L 3.9101562 16.380859 L 1.2675781 8.2324219 L 10.138672 10.728516 C 10.233452 10.755196 10.335394 10.721791 10.396484 10.644531 L 16.111328 3.4179688 z M 12.929688 3.71875 C 12.946157 3.7167748 12.962739 3.7173781 12.978516 3.71875 C 13.073175 3.7269817 13.158314 3.7906963 13.189453 3.8867188 C 13.230973 4.0147484 13.15928 4.1537935 13.03125 4.1953125 L 4.21875 7.0527344 C 4.0907202 7.0942542 3.9536282 7.024514 3.9121094 6.8964844 C 3.8705894 6.7684546 3.9403296 6.6294096 4.0683594 6.5878906 L 12.880859 3.7304688 C 12.896863 3.7252788 12.913218 3.7207252 12.929688 3.71875 z M 10.953125 5.3984375 C 11.050305 5.4042612 11.138133 5.4683835 11.169922 5.5664062 C 11.211442 5.694436 11.141702 5.833481 11.013672 5.875 L 4.5195312 7.9804688 C 4.3915016 8.0219886 4.2544096 7.9522484 4.2128906 7.8242188 C 4.1713708 7.696189 4.241111 7.557144 4.3691406 7.515625 L 10.863281 5.4101562 C 10.879285 5.4049664 10.89406 5.4021944 10.910156 5.4003906 C 10.924241 5.3988124 10.939242 5.3976055 10.953125 5.3984375 z M 2.265625 6.5625 L 2.7792969 8.1503906 L 1.2402344 7.7167969 L 2.265625 6.5625 z " />
    </g>
    <polygon transform="matrix(.11137 -.24439 .24439 .11137 -4.7965 19.647)" points="43.343 79.156 45 80.333 46.657 79.156 46.657 78.698 43.343 78.698" id="polygon4" />
    <g stroke-width=".26857" id="g6">
      <rect transform="rotate(-65.5)" x="-8.5177" y="20.889" width="1.4735" height="3.4925" id="rect4" />
      <path d="m13.342 16.883 1.699-3.7281c-0.59302-0.29926-1.2003-0.59317-1.8136-0.87266-6.0613-2.7623-10.288-3.3504-10.65-2.5561-0.36197 0.79427 2.8548 3.5983 8.9161 6.3606 0.61328 0.27948 1.2335 0.545 1.8484 0.79621z" id="path5" />
      <path d="m13.127 18.651c-0.20695 0.46993 0.0026 1.0221 0.47131 1.2357 0.47206 0.21513 1.0314 6e-3 1.2466-0.46619 0.17458-0.38308 0.06941-0.82564-0.24042-1.0941l-0.19624 0.43062c-0.06151 0.13498-0.22068 0.19458-0.35577 0.13302-0.13507-0.06155-0.19453-0.22079-0.13302-0.35577l2.7467-6.0272c0.0615-0.13495 0.2207-0.19457 0.35577-0.13302 0.13508 0.06156 0.19452 0.22082 0.13302 0.35577l-0.19624 0.43062c0.40587 0.05769 0.80886-0.15326 0.98344-0.53634 0.2152-0.47221 6e-3 -1.0316-0.46602-1.2467-0.46873-0.21361-1.023-0.0094-1.2419 0.45521-0.0049 0.0152-0.01068 0.02727-0.01871 0.04105l-3.0699 6.7363c-0.0053 0.01544-0.01074 0.02739-0.01869 0.04102z" id="path6" />
    </g>
  </g>
</svg>
