<svg xmlns:dc="http://purl.org/dc/elements/1.1/" xmlns:cc="http://creativecommons.org/ns#" xmlns:rdf="http://www.w3.org/1999/02/22-rdf-syntax-ns#" xmlns:svg="http://www.w3.org/2000/svg" xmlns="http://www.w3.org/2000/svg" xmlns:sodipodi="http://sodipodi.sourceforge.net/DTD/sodipodi-0.dtd" xmlns:inkscape="http://www.inkscape.org/namespaces/inkscape" version="1.1" x="0px" y="0px" viewBox="0 0 100 100" fill="#ffffff"><g transform="translate(0,-952.36218)"><path style="enable-background:accumulate;" d="m 19.9999,975.36213 c -2.2866,0 -4.3815,0.7807 -6.0625,2.0625 l 34.4375,32.34377 c 0.7738,0.7265 2.4762,0.7265 3.25,0 l 34.4375,-32.34377 c -1.681,-1.2818 -3.7759,-2.0625 -6.0625,-2.0625 l -60,0 z m -8.6875,5.0625 c -0.8235,1.4546 -1.3125001,3.1402 -1.3125001,4.9375 l 0,33.99997 c 0,2.0367 0.6187001,3.9233 1.6562001,5.5001 l 0.094,-0.062 25.1562,-20.3126 -25.5937,-24.06247 z m 77.375,0 -25.5937,24.06247 25.1562,20.3126 0.094,0.062 c 1.0375,-1.5768 1.6562,-3.4634 1.6562,-5.5001 l 0,-33.99997 c 0,-1.7973 -0.489,-3.4829 -1.3125,-4.9375 z m -48.8437,26.81247 -25.3438,20.4688 c 1.5768,1.0376 3.4634,1.6563 5.5,1.6563 l 60,0 c 2.0366,0 3.9232,-0.6187 5.5,-1.6563 l -25.3438,-20.4688 -5.7812,5.4375 c -2.4474,2.2982 -6.3026,2.2982 -8.75,0 l -5.7812,-5.4375 z"  stroke="none" marker="none" visibility="visible" display="inline" overflow="visible"/></g></svg>
