<svg xmlns="http://www.w3.org/2000/svg" version="1.1" viewBox="0.0 0.0 100.0 100.0" fill="#ffffff">
 <path d="m91.418 81.914-1.2969-9.7422c-0.48828-3.6797-3.4336-6.5039-7.0391-6.9648 2.6172-1.9102 4.3438-4.9805 4.3438-8.4609 0-5.7852-4.707-10.492-10.492-10.492-5.2109 0-9.5117 3.8281-10.324 8.8125-0.023437 0.20703-0.03125 0.41797-0.0625 0.62109-0.035156 0.35547-0.10547 0.69531-0.10547 1.0586 0 3.4844 1.7266 6.5508 4.3438 8.4609-0.97656 0.125-1.8945 0.43359-2.7383 0.87891 1.0039 1.6133 1.6875 3.4492 1.9492 5.4219l1.5859 11.891c0.23047 1.7266 0.03125 3.4531-0.52734 5.0586h14.641c1.668 0 3.25-0.71875 4.3477-1.9727 1.0977-1.2539 1.6016-2.918 1.3828-4.5703z"/>
 <path d="m28.422 83.391 1.582-11.883c0.26172-1.9727 0.94531-3.8086 1.9492-5.4219-0.84375-0.44141-1.7617-0.75391-2.7383-0.87891 2.6211-1.9102 4.3438-4.9805 4.3438-8.4609 0-0.36328-0.070313-0.70703-0.10547-1.0586-0.03125-0.20703-0.039063-0.41406-0.0625-0.62109-0.8125-4.9844-5.1133-8.8125-10.324-8.8125-5.7852 0-10.492 4.707-10.492 10.492 0 3.4844 1.7227 6.5508 4.3438 8.4609-3.6055 0.46094-6.5469 3.2891-7.0391 6.9648l-1.3008 9.7422c-0.21875 1.6523 0.28516 3.3164 1.3828 4.5703 1.0977 1.2539 2.6797 1.9727 4.3477 1.9727h14.641c-0.55859-1.6094-0.75781-3.3398-0.52734-5.0664z"/>
 <path d="m67.449 83.949-1.5859-11.891c-0.60938-4.582-4.418-8.0508-8.9766-8.3555 3.418-2.25 5.6836-6.1172 5.6836-10.508 0-6.9336-5.6406-12.574-12.574-12.574-6.9297 0-12.574 5.6406-12.574 12.574 0 4.3906 2.2656 8.2578 5.6836 10.508-4.5586 0.30469-8.3633 3.7734-8.9766 8.3555l-1.582 11.891c-0.26172 1.9492 0.33203 3.9141 1.6289 5.3906 1.293 1.4805 3.1641 2.3281 5.1289 2.3281h21.383c1.9648 0 3.8359-0.84766 5.1289-2.3281 1.293-1.4805 1.8867-3.4453 1.6289-5.3906z"/>
 <path d="m62.816 17.461-7.8086-1.7539-4.082-6.8867c-0.38672-0.65234-1.4609-0.65234-1.8516 0l-4.082 6.8867-7.8086 1.7539c-0.37109 0.082031-0.67188 0.35547-0.78906 0.71484-0.11719 0.35938-0.035156 0.75781 0.21484 1.043l5.2891 6.0078-0.74609 7.9688c-0.035156 0.37891 0.13281 0.74609 0.44141 0.97266 0.30859 0.22656 0.71094 0.26953 1.0586 0.11719l7.3477-3.1719 7.3477 3.1719c0.13672 0.058594 0.28125 0.085938 0.42578 0.085938 0.22266 0 0.44531-0.070313 0.63281-0.20703 0.30469-0.22266 0.47656-0.58984 0.44141-0.97266l-0.74609-7.9688 5.2891-6.0078c0.25391-0.28516 0.33203-0.67969 0.21484-1.043-0.11719-0.36328-0.41797-0.63672-0.78906-0.71484z"/>
 <path d="m91.914 25.898c-0.11719-0.36328-0.41797-0.63672-0.78906-0.71484l-7.8086-1.7539-4.082-6.8867c-0.38672-0.65234-1.4609-0.65234-1.8516 0l-4.082 6.8867-7.8086 1.7539c-0.37109 0.082031-0.67188 0.35547-0.78906 0.71484-0.11719 0.35937-0.035156 0.75781 0.21484 1.043l5.2891 6.0078-0.74609 7.9688c-0.035157 0.37891 0.13281 0.74609 0.44141 0.97266s0.71484 0.26953 1.0586 0.11719l7.3477-3.1719 7.3516 3.1719c0.13672 0.058594 0.28125 0.085938 0.42578 0.085938 0.22266 0 0.44531-0.070312 0.63281-0.20703 0.30469-0.22266 0.47656-0.58984 0.44141-0.97266l-0.74609-7.9688 5.2891-6.0078c0.25391-0.28516 0.33203-0.67969 0.21484-1.043z"/>
 <path d="m34.504 25.184-7.8086-1.7539-4.082-6.8867c-0.38672-0.65234-1.4609-0.65234-1.8516 0l-4.082 6.8867-7.8086 1.7539c-0.37109 0.082031-0.67188 0.35547-0.78906 0.71484-0.11719 0.35937-0.035156 0.75781 0.21484 1.043l5.2891 6.0078-0.74609 7.9688c-0.035156 0.37891 0.13281 0.74609 0.44141 0.97266 0.1875 0.13672 0.41016 0.20703 0.63281 0.20703 0.14453 0 0.28906-0.027344 0.42578-0.085937l7.3516-3.1719 7.3477 3.1719c0.34375 0.14844 0.75 0.10547 1.0586-0.11719 0.30469-0.22266 0.47656-0.58984 0.44141-0.97266l-0.74609-7.9688 5.2891-6.0078c0.25391-0.28516 0.33203-0.67969 0.21484-1.043-0.11719-0.36328-0.41797-0.63672-0.78906-0.71484z"/>
</svg>
