<svg xmlns="http://www.w3.org/2000/svg" version="1.1" viewBox="0.0 0.0 100.0 100.0" fill="#ffffff">
 <path d="m63.918 53.152c0.31641-0.007813 0.625 0.10938 0.85156 0.33203 0.22656 0.21875 0.35547 0.52344 0.35547 0.83984 0 0.31641-0.12891 0.62109-0.35547 0.83984-0.22656 0.22266-0.53516 0.33984-0.85156 0.33203h-7.957c-0.32031 0.007812-0.625-0.10938-0.85156-0.33203-0.22656-0.21875-0.35547-0.52344-0.35547-0.83984 0-0.31641 0.12891-0.62109 0.35547-0.83984 0.22656-0.22266 0.53125-0.33984 0.85156-0.33203zm-19.52-14.602c0.63672 0.019531 1.1406 0.53906 1.1406 1.1719 0 0.63672-0.50391 1.1523-1.1406 1.1719h-12.539c-0.31641 0.007813-0.62109-0.10938-0.84766-0.33203-0.23047-0.21875-0.35547-0.52344-0.35547-0.83984s0.125-0.62109 0.35547-0.83984c0.22656-0.22266 0.53125-0.33984 0.84766-0.33203zm17.605 0h0.003906c0.31641-0.007812 0.62109 0.10938 0.85156 0.33203 0.22656 0.21875 0.35547 0.52344 0.35547 0.83984s-0.12891 0.62109-0.35547 0.83984c-0.23047 0.22266-0.53516 0.33984-0.85156 0.33203h-7.957c-0.31641 0.007813-0.625-0.10938-0.85156-0.33203-0.22656-0.21875-0.35547-0.52344-0.35547-0.83984s0.12891-0.62109 0.35547-0.83984c0.22656-0.22266 0.53516-0.33984 0.85156-0.33203zm-23.23-14.602 0.003906 0.003906c0.63281 0.015625 1.1367 0.53516 1.1367 1.1719 0 0.63281-0.50391 1.1523-1.1367 1.1719h-12.539c-0.63672-0.019531-1.1406-0.53906-1.1406-1.1719 0-0.63672 0.50391-1.1562 1.1406-1.1719zm17.605 0 0.003906 0.003906c0.31641-0.011719 0.625 0.10938 0.85156 0.32812 0.22656 0.22266 0.35547 0.52734 0.35547 0.84375s-0.12891 0.61719-0.35547 0.83984c-0.22656 0.21875-0.53516 0.33984-0.85156 0.33203h-7.9609 0.003906c-0.63672-0.019531-1.1406-0.53906-1.1406-1.1719 0-0.63672 0.50391-1.1562 1.1406-1.1719zm21.828-13.18 0.003907 0.003907c-0.84375 0.085937-1.6719 0.30469-2.4531 0.64844-2.0273 1.0156-3.4766 2.9102-3.9297 5.1328-0.67578 2.957-0.80859 6.0117-0.39062 9.0195 0.21875 1.9844 0.53906 3.957 0.96484 5.9102h7.8164c2.5742-0.019531 5.0273-1.1094 6.7656-3.0117 3.793-4.1602 3.793-10.527 0-14.691-1.7383-1.8984-4.1914-2.9922-6.7656-3.0078zm-62.156 78.375c0.085938-0.019531 0.17578-0.03125 0.26562-0.03125h51.312c-1.4492-1.5664-2.5625-3.4102-3.2852-5.4219-0.83984-2.2227-1.3516-4.5586-1.5195-6.9297-0.20312-2.1719 0.042969-4.3633 0.71484-6.4414 0.23828-0.66406 0.55859-1.293 0.95313-1.8789h-48.176c-3.3984 0-6.1484 4.6367-6.1484 10.355-0.058594 2.6445 0.62109 5.25 1.9609 7.5273 0.78906 1.5039 2.2422 2.5469 3.9219 2.8203zm56.645-0.03125c0.066407 0 0.13281 0.007813 0.19922 0.019531 1.8125 0.25781 3.6641 0.089844 5.3984-0.49219 1.3047-0.48438 2.4141-1.3828 3.1562-2.5547 0.89062-1.5078 1.4219-3.1992 1.5508-4.9453 0.71094-6.582-1.6211-16.926-7-31.039v-0.011718c-2.3906-5.5078-4.2773-11.219-5.6445-17.066-0.023438-0.070313-0.039063-0.14453-0.046875-0.21875-0.53125-2.3086-0.92969-4.6406-1.1914-6.9922-0.44922-3.293-0.28906-6.6445 0.46484-9.8828 0.47656-1.9648 1.5039-3.7539 2.9648-5.1562h-45.695c-3.1328 0.015624-6.125 1.3125-8.2812 3.5898-2.2812 2.3906-3.5859 5.543-3.6641 8.8477-0.33594 11.16 2.1719 17.102 4.5703 22.785 2.3281 5.5234 4.5625 10.812 4.2148 20.102h44.574c0.042969 0 0.089844 0 0.13281 0.007813 0.36719 0.03125 0.73047 0.082031 1.0898 0.15234 2.3242 0.39063 4.3594 1.7812 5.5664 3.8008 1.3125 2.4648 1.8047 5.2773 1.4141 8.043-0.082031 0.91406-0.21094 1.8281-0.39062 2.7344-0.12109 0.63281-0.73828 1.0469-1.3711 0.92187-0.63672-0.12109-1.0508-0.73828-0.92578-1.3711 0.16406-0.82422 0.28125-1.6523 0.35938-2.4883 0.34375-2.2734-0.039063-4.5977-1.0898-6.6406-0.87891-1.4453-2.3438-2.4336-4.0117-2.7031-0.23437-0.046876-0.47656-0.082032-0.73047-0.10938l-0.003906 0.003907c-1.2656 0.37109-2.2422 1.3867-2.5703 2.6641-0.5625 1.7734-0.75781 3.6406-0.58203 5.4883 0.15234 2.1406 0.61719 4.2461 1.375 6.2539 1.2461 3.2617 3.2109 5.8789 5.6016 6.2539zm-26.383-35.961c0.63281 0.019531 1.1367 0.53906 1.1367 1.1719 0 0.63281-0.50391 1.1523-1.1367 1.1719h-12.543c-0.31641 0.007812-0.625-0.10938-0.85156-0.33203-0.22656-0.21875-0.35547-0.52344-0.35547-0.83984 0-0.31641 0.12891-0.62109 0.35547-0.83984 0.22656-0.22266 0.53516-0.33984 0.85156-0.33203z" fill-rule="evenodd"/>
</svg>
