<svg xmlns="http://www.w3.org/2000/svg" viewBox="0 0 64 64" x="0px" y="0px" fill="#ffffff"><g data-name="prison cell"><rect x="5" y="53" width="54" height="6"/><rect x="5" y="5" width="54" height="6"/><rect x="52" y="13" width="6" height="38"/><rect x="36" y="13" width="6" height="38"/><path d="M28,13V51H22V39h1a1,1,0,0,0,1-1V26a1,1,0,0,0-1-1H22V13Z"/><path d="M10,26V38a1,1,0,0,0,1,1h1V51H6V13h6V25H11A1,1,0,0,0,10,26Z"/><path d="M12,27V37H22V27Zm6,5.5V35a1,1,0,0,1-2,0V32.5a1,1,0,0,1,0-2h2a1,1,0,0,1,0,2Z"/></g></svg>
