<svg xmlns="http://www.w3.org/2000/svg" version="1.1" viewBox="-5.0 -5.0 110.0 110.0" fill="#ffffff">
 <path d="m26.562 71.125c0.085938-13.426 10.582-24.25 23.438-24.25 12.906 0 23.438 10.91 23.438 24.41v14.078c0 0.63281-0.39844 1.1992-1 1.4258-13.508 5.1289-28.457 5.082-44.781 0.03125-0.64844-0.19922-1.0938-0.78516-1.0938-1.457zm42.188-18.598c4.6328 4.9336 7.4922 11.633 7.4922 19.027v6.125c6.7422 1.3086 13.125 0.22266 19.109-3.3516 0.94531-0.56641 1.5234-1.5703 1.5234-2.6602v-9.2891c0-8.5547-7.1094-15.504-15.871-15.504-4.9336 0-9.3438 2.2031-12.254 5.6523zm-44.992 25.105v-6.25c0.046876-7.3281 2.8945-13.961 7.4922-18.855-2.9141-3.4492-7.3203-5.6523-12.254-5.6523-8.7305 0-15.816 6.8984-15.871 15.402v9.3906c0 1.1602 0.65625 2.2227 1.7031 2.7617 6.1953 3.1758 12.504 4.3125 18.93 3.2031zm26.242-65.133c-8.6289 0-15.625 7.0078-15.625 15.625s6.9961 15.625 15.625 15.625 15.625-7.0078 15.625-15.625-6.9961-15.625-15.625-15.625zm31.25 6.1953c-6.9023 0-12.5 5.6055-12.5 12.5 0 6.8945 5.5977 12.5 12.5 12.5s12.5-5.6055 12.5-12.5c0-6.8945-5.5977-12.5-12.5-12.5zm-62.5 0c-6.9023 0-12.5 5.6055-12.5 12.5 0 6.8945 5.5977 12.5 12.5 12.5s12.5-5.6055 12.5-12.5c0-6.8945-5.5977-12.5-12.5-12.5z" fill-rule="evenodd"/>
</svg>
