<?xml version="1.0" encoding="UTF-8" standalone="no"?>
<svg
   viewBox="0 0 8.4666665 8.4666665"
   version="1.1"
   x="0px"
   y="0px"
   fill="currentColor"
   id="svg11"
   sodipodi:docname="subrace_ogre.svg"
   inkscape:version="1.4.2 (ebf0e940, 2025-05-08)"
   xmlns:inkscape="http://www.inkscape.org/namespaces/inkscape"
   xmlns:sodipodi="http://sodipodi.sourceforge.net/DTD/sodipodi-0.dtd"
   xmlns="http://www.w3.org/2000/svg"
   xmlns:svg="http://www.w3.org/2000/svg">
  <defs
     id="defs11" />
  <sodipodi:namedview
     id="namedview11"
     pagecolor="#ffffff"
     bordercolor="#000000"
     borderopacity="0.25"
     inkscape:showpageshadow="2"
     inkscape:pageopacity="0.0"
     inkscape:pagecheckerboard="0"
     inkscape:deskcolor="#d1d1d1"
     inkscape:zoom="24.56693"
     inkscape:cx="3.6227562"
     inkscape:cy="3.2564101"
     inkscape:window-width="1328"
     inkscape:window-height="749"
     inkscape:window-x="0"
     inkscape:window-y="38"
     inkscape:window-maximized="0"
     inkscape:current-layer="svg11" />
  <path
     style="fill:#c5d300;fill-opacity:1;stroke-width:3.26929;stroke-linecap:round;stroke-linejoin:round"
     d="m 1.8317307,2.5033653 c 0,0 -1.03798074,-0.9972757 -1.30256406,-1.0379808 -0.30173849,-0.046421 -0.52424023,1.021135 -0.24423076,0.976923 0.3866987,-0.061058 1.42467942,0.468109 1.42467942,0.468109 z"
     id="path13"
     sodipodi:nodetypes="csscc" />
  <path
     style="fill:#c5d300;fill-opacity:1;stroke-width:3.26929;stroke-linecap:round;stroke-linejoin:round"
     d="m 6.6634615,2.5048369 c 0,0 1.0379807,-0.9972757 1.3025641,-1.0379808 0.3017384,-0.046421 0.5242402,1.021135 0.2442307,0.976923 -0.3866987,-0.061058 -1.4246794,0.468109 -1.4246794,0.468109 z"
     id="path13-6"
     sodipodi:nodetypes="csscc" />
  <ellipse
     style="fill:#c5d300;fill-opacity:1;stroke-width:3.00296;stroke-linecap:round;stroke-linejoin:round"
     id="path12"
     cx="4.2435093"
     cy="4.2943907"
     rx="2.8188298"
     ry="3.582051" />
  <path
     style="fill:#7e0015;fill-opacity:1;stroke-width:3.26929;stroke-linecap:round;stroke-linejoin:round"
     d="M 2.7374197,5.0372594 4.2943908,5.1797273 5.7394228,4.9965542 5.0067305,5.7394228 3.5311697,5.7699516 Z"
     id="path14" />
  <path
     style="fill:#f3f3f3;fill-opacity:1;stroke-width:3.26929;stroke-linecap:round;stroke-linejoin:round"
     d="M 3.6329325,2.7984774 3.1648236,2.3405448 2.6254806,2.81883 3.1648236,3.0223556 Z"
     id="path15" />
  <path
     style="fill:#f3f3f3;fill-opacity:1;stroke-width:3.26929;stroke-linecap:round;stroke-linejoin:round"
     d="M 5.8622595,2.8141025 5.3941506,2.3561699 4.8548076,2.8344551 5.3941506,3.0379807 Z"
     id="path15-9" />
  <g
     transform="translate(0,-288.53332)"
     id="g11"
     style="fill:#1a1a1a;fill-opacity:1">
    <path
       style="color:#000000;font-style:normal;font-variant:normal;font-weight:normal;font-stretch:normal;font-size:medium;line-height:normal;font-family:sans-serif;text-indent:0;text-align:start;text-decoration:none;text-decoration-line:none;text-decoration-style:solid;text-decoration-color:#000000;letter-spacing:normal;word-spacing:normal;text-transform:none;direction:ltr;block-progression:tb;writing-mode:lr-tb;baseline-shift:baseline;text-anchor:start;white-space:normal;clip-rule:nonzero;display:inline;overflow:visible;visibility:visible;opacity:1;isolation:auto;mix-blend-mode:normal;color-interpolation:sRGB;color-interpolation-filters:linearRGB;solid-color:#000000;solid-opacity:1;fill:#1a1a1a;fill-opacity:1;fill-rule:nonzero;stroke:none;stroke-width:0.26458332;stroke-linecap:butt;stroke-linejoin:miter;stroke-miterlimit:4;stroke-dasharray:none;stroke-dashoffset:0;stroke-opacity:1;color-rendering:auto;image-rendering:auto;shape-rendering:auto;text-rendering:auto;enable-background:accumulate"
       d="m 4.2324219,289.0625 c -0.9767169,0 -1.7180733,0.56913 -2.1972657,1.375 -0.4791923,0.80587 -0.7128906,1.85038 -0.7128906,2.85742 0,2.03156 1.384321,3.17578 2.9101563,3.17578 1.5258355,0 2.9121094,-1.14422 2.9121093,-3.17578 0,-1.00704 -0.2356513,-2.05155 -0.7148437,-2.85742 -0.4791924,-0.80587 -1.2205487,-1.375 -2.1972656,-1.375 z m 0,0.26367 c 0.8753664,0 1.5238538,0.49462 1.9707031,1.2461 0.4468493,0.75147 0.6757813,1.75701 0.6757812,2.72265 0,1.91381 -1.2498128,2.91211 -2.6464843,2.91211 -1.3966713,0 -2.6445313,-0.9983 -2.6445313,-2.91211 0,-0.96564 0.228932,-1.97118 0.6757813,-2.72265 0.4468493,-0.75148 1.0933836,-1.2461 1.96875,-1.2461 z"
       id="path1" />
    <path
       style="color:#000000;font-style:normal;font-variant:normal;font-weight:normal;font-stretch:normal;font-size:medium;line-height:normal;font-family:sans-serif;text-indent:0;text-align:start;text-decoration:none;text-decoration-line:none;text-decoration-style:solid;text-decoration-color:#000000;letter-spacing:normal;word-spacing:normal;text-transform:none;direction:ltr;block-progression:tb;writing-mode:lr-tb;baseline-shift:baseline;text-anchor:start;white-space:normal;clip-rule:nonzero;display:inline;overflow:visible;visibility:visible;opacity:1;isolation:auto;mix-blend-mode:normal;color-interpolation:sRGB;color-interpolation-filters:linearRGB;solid-color:#000000;solid-opacity:1;fill:#1a1a1a;fill-opacity:1;fill-rule:nonzero;stroke:none;stroke-width:0.26458332;stroke-linecap:butt;stroke-linejoin:miter;stroke-miterlimit:4;stroke-dasharray:none;stroke-dashoffset:0;stroke-opacity:1;color-rendering:auto;image-rendering:auto;shape-rendering:auto;text-rendering:auto;enable-background:accumulate"
       d="m 4.2324219,291.64258 c -0.209059,0 -0.4019299,0.10121 -0.546875,0.24609 -0.1449452,0.14489 -0.2460938,0.33785 -0.2460938,0.54688 0,0.41805 0.3925855,0.72851 0.7929688,0.72851 0.4003832,0 0.7949219,-0.31046 0.7949219,-0.72851 0,-0.20903 -0.1011487,-0.40199 -0.2460938,-0.54688 -0.1449451,-0.14488 -0.3397691,-0.24609 -0.5488281,-0.24609 z m 0,0.26367 c 0.1198546,0 0.2576402,0.0663 0.3613281,0.16992 0.1036879,0.10365 0.1699219,0.23963 0.1699219,0.35938 0,0.2395 -0.2738061,0.46289 -0.53125,0.46289 -0.257444,0 -0.5292969,-0.22339 -0.5292969,-0.46289 0,-0.11975 0.066234,-0.25573 0.1699219,-0.35938 0.1036879,-0.10364 0.2395204,-0.16992 0.359375,-0.16992 z"
       id="path2" />
    <path
       style="color:#000000;font-style:normal;font-variant:normal;font-weight:normal;font-stretch:normal;font-size:medium;line-height:normal;font-family:sans-serif;text-indent:0;text-align:start;text-decoration:none;text-decoration-line:none;text-decoration-style:solid;text-decoration-color:#000000;letter-spacing:normal;word-spacing:normal;text-transform:none;direction:ltr;block-progression:tb;writing-mode:lr-tb;baseline-shift:baseline;text-anchor:start;white-space:normal;clip-rule:nonzero;display:inline;overflow:visible;visibility:visible;opacity:1;isolation:auto;mix-blend-mode:normal;color-interpolation:sRGB;color-interpolation-filters:linearRGB;solid-color:#000000;solid-opacity:1;fill:#1a1a1a;fill-opacity:1;fill-rule:nonzero;stroke:none;stroke-width:0.26458332;stroke-linecap:butt;stroke-linejoin:miter;stroke-miterlimit:4;stroke-dasharray:none;stroke-dashoffset:0;stroke-opacity:1;color-rendering:auto;image-rendering:auto;shape-rendering:auto;text-rendering:auto;enable-background:accumulate"
       d="m 3.7597656,292.03711 c -0.2287566,-0.1251 -0.5177537,-0.0628 -0.6757812,0.14453 -0.1580357,0.20738 -0.1404314,0.50221 0.041016,0.68945 0.1814321,0.18725 0.4751307,0.21376 0.6875,0.0625 L 3.6582031,292.7168 c -0.1073841,0.0765 -0.2520237,0.0634 -0.34375,-0.0312 -0.091734,-0.0947 -0.099421,-0.23892 -0.019531,-0.34375 0.079885,-0.10483 0.2222094,-0.13553 0.3378906,-0.0723 l 0.1269531,-0.23242 z"
       id="path3" />
    <path
       style="color:#000000;font-style:normal;font-variant:normal;font-weight:normal;font-stretch:normal;font-size:medium;line-height:normal;font-family:sans-serif;text-indent:0;text-align:start;text-decoration:none;text-decoration-line:none;text-decoration-style:solid;text-decoration-color:#000000;letter-spacing:normal;word-spacing:normal;text-transform:none;direction:ltr;block-progression:tb;writing-mode:lr-tb;baseline-shift:baseline;text-anchor:start;white-space:normal;clip-rule:nonzero;display:inline;overflow:visible;visibility:visible;opacity:1;isolation:auto;mix-blend-mode:normal;color-interpolation:sRGB;color-interpolation-filters:linearRGB;solid-color:#000000;solid-opacity:1;fill:#1a1a1a;fill-opacity:1;fill-rule:nonzero;stroke:none;stroke-width:0.26458332;stroke-linecap:butt;stroke-linejoin:miter;stroke-miterlimit:4;stroke-dasharray:none;stroke-dashoffset:0;stroke-opacity:1;color-rendering:auto;image-rendering:auto;shape-rendering:auto;text-rendering:auto;enable-background:accumulate"
       d="m 4.7285156,292.02734 0.1171875,0.23828 c 0.1195682,-0.0583 0.2616201,-0.0204 0.3359375,0.0899 0.074316,0.11025 0.055969,0.25488 -0.042969,0.34375 -0.099012,0.0888 -0.2459617,0.0916 -0.3476563,0.006 l -0.1699218,0.20117 c 0.201064,0.16945 0.4975947,0.16578 0.6933593,-0.01 0.1956182,-0.17571 0.2329057,-0.47142 0.085937,-0.68945 -0.1469709,-0.21803 -0.435519,-0.29493 -0.671875,-0.17969 z"
       id="path4" />
    <path
       style="color:#000000;font-style:normal;font-variant:normal;font-weight:normal;font-stretch:normal;font-size:medium;line-height:normal;font-family:sans-serif;text-indent:0;text-align:start;text-decoration:none;text-decoration-line:none;text-decoration-style:solid;text-decoration-color:#000000;letter-spacing:normal;word-spacing:normal;text-transform:none;direction:ltr;block-progression:tb;writing-mode:lr-tb;baseline-shift:baseline;text-anchor:start;white-space:normal;clip-rule:nonzero;display:inline;overflow:visible;visibility:visible;opacity:1;isolation:auto;mix-blend-mode:normal;color-interpolation:sRGB;color-interpolation-filters:linearRGB;solid-color:#000000;solid-opacity:1;fill:#1a1a1a;fill-opacity:1;fill-rule:evenodd;stroke:none;stroke-width:0.26458332px;stroke-linecap:round;stroke-linejoin:round;stroke-miterlimit:4;stroke-dasharray:none;stroke-dashoffset:0;stroke-opacity:1;color-rendering:auto;image-rendering:auto;shape-rendering:auto;text-rendering:auto;enable-background:accumulate"
       d="m 2.9199219,290.83789 c -0.1427615,0.0662 -0.2372991,0.19567 -0.3183594,0.30859 -0.08106,0.11293 -0.1367187,0.21485 -0.1367187,0.21485 a 0.13230489,0.13230489 0 0 0 0.066406,0.1875 c 0.1805582,0.0701 0.3811445,0.17122 0.6191406,0.1582 0.2274872,-0.0123 0.437629,-0.0967 0.6328125,-0.24219 a 0.13230489,0.13230489 0 0 0 0.037109,-0.16796 c 0,0 -0.047158,-0.0876 -0.1152344,-0.18555 -0.068077,-0.0979 -0.1464109,-0.21248 -0.2753906,-0.27344 -0.1606247,-0.0759 -0.3482692,-0.0739 -0.5078125,0 a 0.13230489,0.13230489 0 0 0 -0.00195,0 z m 0.1132812,0.24023 c 0.080876,-0.0367 0.2047648,-0.0371 0.2832031,0 0.026968,0.0127 0.1135739,0.0997 0.171875,0.1836 0.012736,0.0183 0.01068,0.0183 0.021484,0.0352 -0.1225863,0.0711 -0.2428298,0.13933 -0.375,0.14648 -0.1022944,0.006 -0.2267434,-0.0503 -0.3476562,-0.0957 0.014499,-0.022 0.011792,-0.0225 0.029297,-0.0469 0.071207,-0.0992 0.1748777,-0.2032 0.2167969,-0.22266 z"
       id="path5" />
    <path
       style="color:#000000;font-style:normal;font-variant:normal;font-weight:normal;font-stretch:normal;font-size:medium;line-height:normal;font-family:sans-serif;text-indent:0;text-align:start;text-decoration:none;text-decoration-line:none;text-decoration-style:solid;text-decoration-color:#000000;letter-spacing:normal;word-spacing:normal;text-transform:none;direction:ltr;block-progression:tb;writing-mode:lr-tb;baseline-shift:baseline;text-anchor:start;white-space:normal;clip-rule:nonzero;display:inline;overflow:visible;visibility:visible;opacity:1;isolation:auto;mix-blend-mode:normal;color-interpolation:sRGB;color-interpolation-filters:linearRGB;solid-color:#000000;solid-opacity:1;fill:#1a1a1a;fill-opacity:1;fill-rule:evenodd;stroke:none;stroke-width:0.26458332px;stroke-linecap:round;stroke-linejoin:round;stroke-miterlimit:4;stroke-dasharray:none;stroke-dashoffset:0;stroke-opacity:1;color-rendering:auto;image-rendering:auto;shape-rendering:auto;text-rendering:auto;enable-background:accumulate"
       d="m 5.0371094,290.83789 c -0.1289797,0.061 -0.2073141,0.17553 -0.2753906,0.27344 -0.068077,0.0979 -0.1152344,0.18554 -0.1152344,0.18555 a 0.13230489,0.13230489 0 0 0 0.037109,0.16796 c 0.1951871,0.14549 0.4053126,0.22991 0.6328124,0.24219 0.2377435,0.0126 0.4384718,-0.0881 0.6191407,-0.1582 a 0.13230489,0.13230489 0 0 0 0.066406,-0.1875 c 0,0 -0.055658,-0.10191 -0.1367187,-0.21485 -0.081061,-0.11293 -0.1775284,-0.24235 -0.3203125,-0.30859 -0.1595433,-0.0739 -0.3471878,-0.0759 -0.5078125,0 z m 0.1132812,0.24023 c 0.078979,-0.0373 0.2023692,-0.0375 0.2832032,0 0.041897,0.0194 0.1455906,0.12346 0.2167968,0.22266 0.017505,0.0244 0.014798,0.0249 0.029297,0.0469 -0.1209147,0.0453 -0.245189,0.10115 -0.3476563,0.0957 -0.1321604,-0.007 -0.2524201,-0.0753 -0.375,-0.14648 0.010804,-0.0168 0.00875,-0.0168 0.021484,-0.0352 0.058301,-0.0839 0.1449074,-0.17085 0.171875,-0.1836 z"
       id="path6" />
    <path
       style="color:#000000;font-style:normal;font-variant:normal;font-weight:normal;font-stretch:normal;font-size:medium;line-height:normal;font-family:sans-serif;text-indent:0;text-align:start;text-decoration:none;text-decoration-line:none;text-decoration-style:solid;text-decoration-color:#000000;letter-spacing:normal;word-spacing:normal;text-transform:none;direction:ltr;block-progression:tb;writing-mode:lr-tb;baseline-shift:baseline;text-anchor:start;white-space:normal;clip-rule:nonzero;display:inline;overflow:visible;visibility:visible;opacity:1;isolation:auto;mix-blend-mode:normal;color-interpolation:sRGB;color-interpolation-filters:linearRGB;solid-color:#000000;solid-opacity:1;fill:#1a1a1a;fill-opacity:1;fill-rule:evenodd;stroke:none;stroke-width:0.26458332px;stroke-linecap:round;stroke-linejoin:round;stroke-miterlimit:4;stroke-dasharray:none;stroke-dashoffset:0;stroke-opacity:1;color-rendering:auto;image-rendering:auto;shape-rendering:auto;text-rendering:auto;enable-background:accumulate"
       d="m 2.6367188,293.42773 a 0.13230489,0.13230489 0 0 0 -0.083984,0.22657 l 0.546875,0.54687 c 0.1821181,0.18212 0.429946,0.28516 0.6875,0.28516 l 0.8925781,0 c 0.2575539,0 0.505382,-0.10304 0.6875,-0.28516 l 0.546875,-0.54687 a 0.13230489,0.13230489 0 0 0 -0.109375,-0.22461 c 0,0 -1.0632371,0.13086 -1.5722656,0.13086 -0.5090287,0 -1.5703125,-0.13086 -1.5703125,-0.13086 a 0.13230489,0.13230489 0 0 0 -0.025391,-0.002 z m 0.3574218,0.29297 c 0.3076219,0.0362 0.8112325,0.10352 1.2382813,0.10352 0.4272008,0 0.9327997,-0.0673 1.2402343,-0.10352 l -0.2929687,0.29492 c -0.1325709,0.13258 -0.3125163,0.20704 -0.5,0.20704 l -0.8925781,0 c -0.1874838,0 -0.367429,-0.0745 -0.5,-0.20704 L 2.9941406,293.7207 Z"
       id="path7" />
    <path
       style="color:#000000;font-style:normal;font-variant:normal;font-weight:normal;font-stretch:normal;font-size:medium;line-height:normal;font-family:sans-serif;text-indent:0;text-align:start;text-decoration:none;text-decoration-line:none;text-decoration-style:solid;text-decoration-color:#000000;letter-spacing:normal;word-spacing:normal;text-transform:none;direction:ltr;block-progression:tb;writing-mode:lr-tb;baseline-shift:baseline;text-anchor:start;white-space:normal;clip-rule:nonzero;display:inline;overflow:visible;visibility:visible;opacity:1;isolation:auto;mix-blend-mode:normal;color-interpolation:sRGB;color-interpolation-filters:linearRGB;solid-color:#000000;solid-opacity:1;fill:#1a1a1a;fill-opacity:1;fill-rule:evenodd;stroke:none;stroke-width:0.26458332px;stroke-linecap:butt;stroke-linejoin:miter;stroke-miterlimit:4;stroke-dasharray:none;stroke-dashoffset:0;stroke-opacity:1;color-rendering:auto;image-rendering:auto;shape-rendering:auto;text-rendering:auto;enable-background:accumulate"
       d="m 7.7734375,289.87109 c -0.1025163,0.0274 -0.1643962,0.0937 -0.2480469,0.18164 -0.083651,0.0879 -0.1887685,0.20831 -0.3515625,0.3711 l -0.6503906,0.59179 0.1796875,0.19532 0.6542969,-0.59766 0.00195,-0.002 c 0.1679353,-0.16793 0.2795179,-0.29311 0.3574219,-0.375 0.077904,-0.0819 0.1238726,-0.10908 0.125,-0.10938 0.056124,-0.015 0.1173541,-2.7e-4 0.1835937,0.0547 0.06624,0.055 0.1288312,0.14951 0.1582032,0.26758 0.028982,0.11652 0.019249,0.25461 -0.013672,0.3457 -0.016461,0.0455 -0.037714,0.0784 -0.054687,0.0937 -0.016973,0.0153 -0.023966,0.0169 -0.041016,0.0156 -0.3700657,-0.028 -0.5574226,0.0359 -0.8964844,0.22461 l -0.4941406,0.26367 0.1230468,0.23437 0.4980469,-0.26562 0.00195,0 c 0.3303182,-0.18383 0.4072576,-0.21915 0.7480469,-0.19336 0.089927,0.007 0.1778851,-0.0275 0.2382813,-0.082 0.060396,-0.0545 0.099683,-0.12572 0.1269531,-0.20117 0.05454,-0.15091 0.061829,-0.32995 0.019531,-0.5 -0.041911,-0.16848 -0.1278287,-0.30974 -0.2441406,-0.40625 -0.1163119,-0.0965 -0.2707138,-0.14783 -0.421875,-0.10743 z"
       id="path8" />
    <path
       style="opacity:1;fill:#1a1a1a;fill-opacity:1;stroke:none;stroke-width:0.26458332;stroke-linecap:round;stroke-linejoin:round;stroke-miterlimit:4;stroke-dasharray:none;stroke-opacity:1"
       d="m 3.3072919,291.31142 a 0.13229166,0.13229166 0 0 1 -0.1322917,0.13229 0.13229166,0.13229166 0 0 1 -0.1322916,-0.13229 0.13229166,0.13229166 0 0 1 0.1322916,-0.13229 0.13229166,0.13229166 0 0 1 0.1322917,0.13229 z"
       id="path9" />
    <path
       style="opacity:1;fill:#1a1a1a;fill-opacity:1;stroke:none;stroke-width:0.26458332;stroke-linecap:round;stroke-linejoin:round;stroke-miterlimit:4;stroke-dasharray:none;stroke-opacity:1"
       d="m 5.4239583,291.31142 a 0.13229166,0.13229166 0 0 1 -0.1322917,0.13229 0.13229166,0.13229166 0 0 1 -0.1322916,-0.13229 0.13229166,0.13229166 0 0 1 0.1322916,-0.13229 0.13229166,0.13229166 0 0 1 0.1322917,0.13229 z"
       id="path10" />
    <path
       style="color:#000000;font-style:normal;font-variant:normal;font-weight:normal;font-stretch:normal;font-size:medium;line-height:normal;font-family:sans-serif;text-indent:0;text-align:start;text-decoration:none;text-decoration-line:none;text-decoration-style:solid;text-decoration-color:#000000;letter-spacing:normal;word-spacing:normal;text-transform:none;direction:ltr;block-progression:tb;writing-mode:lr-tb;baseline-shift:baseline;text-anchor:start;white-space:normal;clip-rule:nonzero;display:inline;overflow:visible;visibility:visible;opacity:1;isolation:auto;mix-blend-mode:normal;color-interpolation:sRGB;color-interpolation-filters:linearRGB;solid-color:#000000;solid-opacity:1;fill:#1a1a1a;fill-opacity:1;fill-rule:evenodd;stroke:none;stroke-width:0.26458332px;stroke-linecap:butt;stroke-linejoin:miter;stroke-miterlimit:4;stroke-dasharray:none;stroke-dashoffset:0;stroke-opacity:1;color-rendering:auto;image-rendering:auto;shape-rendering:auto;text-rendering:auto;enable-background:accumulate"
       d="m 0.69335938,289.87109 c -0.15116124,-0.0404 -0.30556312,0.0109 -0.421875,0.10743 -0.11631189,0.0965 -0.20222954,0.23777 -0.24414063,0.40625 -0.0422983,0.17005 -0.03500863,0.34909 0.01953125,0.5 0.02726994,0.0754 0.06655693,0.14667 0.12695312,0.20117 0.0603962,0.0545 0.14835374,0.0888 0.23828126,0.082 0.34078933,-0.0258 0.41772874,0.01 0.74804682,0.19336 l 0.00195,0 0.4960937,0.26562 0.125,-0.23437 -0.4941406,-0.26367 -0.00195,0 c -0.33775312,-0.1878 -0.52522426,-0.25256 -0.89453128,-0.22461 -0.0170495,0.001 -0.0240425,-3.1e-4 -0.0410156,-0.0156 -0.0169731,-0.0153 -0.0382269,-0.0482 -0.0546875,-0.0937 -0.0329211,-0.0911 -0.0426539,-0.22918 -0.0136719,-0.3457 0.0293719,-0.11807 0.0919635,-0.21262 0.15820313,-0.26758 0.0662396,-0.055 0.12746982,-0.0697 0.18359375,-0.0547 0.001127,3e-4 0.0451429,0.0275 0.12304688,0.10938 0.077904,0.0819 0.19143975,0.20707 0.35937502,0.375 l 0.00195,0.002 0.6542969,0.59766 0.1796875,-0.19532 -0.6503906,-0.59179 -0.00195,-0.002 -0.00195,-0.002 c -0.1598371,-0.16012 -0.2649092,-0.2802 -0.34765625,-0.36719 -0.0836507,-0.0879 -0.1455306,-0.15424 -0.24804687,-0.18164 z"
       id="path11" />
  </g>
</svg>
