<svg width="20" height="20" xmlns="http://www.w3.org/2000/svg" xmlns:svg="http://www.w3.org/2000/svg">
 <g class="layer">
  <g data-name="Layer 2" id="svg_1" transform="translate(-0.1 0) translate(-3 -4.6) translate(4 6.2) matrix(0.0630586 0 0 0.0630586 3.24811 0.418066)">
   <g data-name="Layer 1" id="svg_2">
    <path d="m87.83,2.71c-15.67,37.67 -72.28,105.9 -86.66,121.29a4.27,4.27 0 0 0 0,5.87c14.36,15.3 71.09,86.53 86.71,122.66a4.33,4.33 0 0 0 7.94,0c15.34,-36.05 71,-106.93 86.31,-122.49a4.26,4.26 0 0 0 0,-6c-15.41,-15.45 -70.9,-83.66 -86.28,-121.31a4.32,4.32 0 0 0 -8.02,-0.02z" id="svg_3"/>
   </g>
  </g>
 </g>
</svg>
