<?xml version="1.0" encoding="UTF-8" standalone="no"?>
<svg
   version="1.1"
   viewBox="0 0 20 20"
   id="svg1"
   sodipodi:docname="race_human.svg"
   inkscape:version="1.4.2 (ebf0e940, 2025-05-08)"
   xmlns:inkscape="http://www.inkscape.org/namespaces/inkscape"
   xmlns:sodipodi="http://sodipodi.sourceforge.net/DTD/sodipodi-0.dtd"
   xmlns="http://www.w3.org/2000/svg"
   xmlns:svg="http://www.w3.org/2000/svg">
  <defs
     id="defs1" />
  <sodipodi:namedview
     id="namedview1"
     pagecolor="#ffffff"
     bordercolor="#000000"
     borderopacity="0.25"
     inkscape:showpageshadow="2"
     inkscape:pageopacity="0.0"
     inkscape:pagecheckerboard="0"
     inkscape:deskcolor="#d1d1d1"
     inkscape:zoom="14.707821"
     inkscape:cx="9.4507541"
     inkscape:cy="5.0313367"
     inkscape:window-width="1512"
     inkscape:window-height="831"
     inkscape:window-x="0"
     inkscape:window-y="38"
     inkscape:window-maximized="1"
     inkscape:current-layer="svg1" />
  <g
     id="g1">
    <path
       d="m 10.015,16.554 c 1.2297,0 2.3684,-0.38945 3.2996,-1.0517 v 1.2251 l 6.4963,2.2596 c 0.63857,0.22211 0.47901,1.1666 -0.19709,1.1666 h -19.198 c -0.6761,0 -0.83566,-0.94444 -0.19709,-1.1666 l 6.4963,-2.2596 v -1.2251 c 0.93116,0.66229 2.0699,1.0517 3.2996,1.0517 z m 4.7994,-7.1991 v 1.4998 c 0,2.6506 -2.1488,4.7994 -4.7994,4.7994 -2.6506,0 -4.7994,-2.1488 -4.7994,-4.7994 V 9.3549 Z m 0.06494,-2.0963 c 0.3008,0.032363 0.53502,0.28706 0.53502,0.59646 0,0.33133 -0.2686,0.59993 -0.59993,0.59993 h -9.5988 c -0.33133,0 -0.59993,-0.2686 -0.59993,-0.59993 0,-0.3094 0.23421,-0.56409 0.53502,-0.59646 0.075849,-2.0939 1.6338,-4.3345769 4.86431,-4.3345769 3.23051,0 4.78851,2.2406769 4.86431,4.3345769 z"
       style="fill:#000000;stroke-width:0.29996"
       id="path1"
       sodipodi:nodetypes="scccsscccsscssscccssssccc" />
  </g>
</svg>
