<?xml version="1.0" encoding="UTF-8" standalone="no"?>
<svg
   version="1.1"
   viewBox="0 0 20 20"
   id="svg15"
   sodipodi:docname="subrace_drow.svg"
   inkscape:version="1.4.2 (ebf0e940, 2025-05-08)"
   xmlns:inkscape="http://www.inkscape.org/namespaces/inkscape"
   xmlns:sodipodi="http://sodipodi.sourceforge.net/DTD/sodipodi-0.dtd"
   xmlns="http://www.w3.org/2000/svg"
   xmlns:svg="http://www.w3.org/2000/svg">
  <sodipodi:namedview
     id="namedview15"
     pagecolor="#ffffff"
     bordercolor="#000000"
     borderopacity="0.25"
     inkscape:showpageshadow="2"
     inkscape:pageopacity="0.0"
     inkscape:pagecheckerboard="0"
     inkscape:deskcolor="#d1d1d1"
     inkscape:zoom="10.4"
     inkscape:cx="10"
     inkscape:cy="10"
     inkscape:window-width="1512"
     inkscape:window-height="831"
     inkscape:window-x="0"
     inkscape:window-y="38"
     inkscape:window-maximized="1"
     inkscape:current-layer="svg15"
     showguides="false" />
  <defs
     id="defs2">
    <style
       type="text/css"
       id="style1">.str0 {stroke:black;stroke-width:8.46}
    .fil0 {fill:none}
    .fil1 {fill:black}</style>
    <style
       type="text/css"
       id="style2">.fil0 {fill:black}</style>
    <clipPath
       id="b">
      <path
         d="m5.497 11.472c-0.129-2.465 0.76-4.876 2.459-6.667 1.7-1.791 4.06-2.805 6.529-2.805h3.07c2.469 0 4.829 1.014 6.529 2.805 1.699 1.791 2.588 4.202 2.459 6.667-0.129 2.453-0.258 4.91-0.353 6.72-0.099 1.868-0.671 3.68-1.665 5.265-0.537 0.857-1.155 1.843-1.746 2.786-1.465 2.338-4.03 3.757-6.789 3.757-2.79 0-5.379-1.449-6.839-3.826-0.573-0.934-1.169-1.906-1.688-2.75-0.96-1.564-1.513-3.344-1.61-5.178-0.095-1.815-0.225-4.296-0.356-6.774z"
         style="clip-rule:evenodd"
         id="path2" />
    </clipPath>
  </defs>
  <path
     d="m23.424-16.407h37.22v37.22h-37.22z"
     style="fill:none;stroke-width:1.1631"
     id="path3" />
  <path
     d="m0.059322-0.025424h20.475v20.475h-20.475z"
     style="fill:none;stroke-width:.63983"
     id="path4" />
  <path
     id="path5"
     style="stroke-width:0.57627"
     d="M 9.0097656,0.80664062 C 6.4340998,0.93881491 4.0233999,2.7584453 3.2480469,5.2265625 2.457578,4.5658802 1.6682533,3.9038274 0.87695312,3.2441406 c -0.0787294,1.3728395 0.0852952,2.727202 0.33638548,4.0748228 0.3113101,1.7174844 0.4425825,3.4774406 0.8601238,5.1700456 0.1550456,0.521327 0.7209316,0.833304 0.5320064,1.43521 -1e-7,1.544791 0,3.089583 0,4.634375 0.3175018,0.573622 1.0841008,0.141569 1.1523437,0.38164 -0.2855756,0.915524 0.5832761,0.67662 1.1992187,0.690625 1.0061359,-0.02839 2.0014109,-0.457074 2.9892773,-0.484208 1.5057731,0.662312 3.2890925,0.638687 4.7841605,-0.03923 1.359583,0.257911 2.705344,0.655518 4.103515,0.523437 -0.116755,-0.857497 0.04092,-0.771923 0.657314,-0.76549 0.720101,-0.163378 0.455326,-0.875816 0.49503,-1.418103 0,-1.373698 0,-2.747396 0,-4.121094 0.956935,-0.983656 0.730305,-2.48629 1.041279,-3.7216153 0.203547,-1.6657662 0.617627,-3.3153565 0.68919,-4.9912755 -0.102956,-0.3601003 0.251104,-1.8145784 -0.284473,-1.1387187 -0.668056,0.6590119 -1.336416,1.3177159 -2.00459,1.9766094 -0.751957,-2.8702561 -3.709351,-4.85974927 -6.642187,-4.65820315 -0.59184,0.007203 -1.1844293,-0.0157436 -1.7757814,0.0136719 z" />
  <path
     d="m7.7373 10.212v8.3178l-3.1992 0.63983v-1.9195l-1.2797 0.63983v-7.678zm9.5975 0v7.678l-1.2797-0.63983v1.9195l-3.1992-0.63983v-8.3178z"
     style="fill:#e6e6e6;stroke-width:.63983"
     id="path6" />
  <path
     d="m19.085 5.5526-0.0723 0.12989-0.95719 6.2262s0.01472 0.10173 0.03135 0.10877c-0.10557 0.469-0.46644 0.84202-0.93799 0.95975-0.74796 0.18747-1.7339 0.4338-1.7339 0.4338v-5.1186l3.839-3.839z"
     style="fill:#827599;stroke-width:.63983"
     id="path7" />
  <path
     d="m1.5079 5.5526 0.072301 0.12989 0.95719 6.2262s-0.014716 0.10173-0.031352 0.10877c0.10557 0.469 0.46644 0.84202 0.93799 0.95975 0.74796 0.18747 1.7339 0.4338 1.7339 0.4338v-5.1186l-3.839-3.839z"
     style="fill:#827599;stroke-width:.63983"
     id="path8" />
  <path
     d="m19.085 5.5526-0.9815 6.3778c-0.0045 0.02943-0.01024 0.05886-0.01664 0.08702-0.13948-0.0627-0.26745-0.151-0.3775-0.26105-0.23994-0.23994-0.37494-0.56561-0.37494-0.90472v-3.5312c0.58992-0.58289 1.1734-1.1722 1.7506-1.7679z"
     style="fill:#664e79;stroke-width:.63983"
     id="path9" />
  <path
     d="m1.5079 5.5526 0.9815 6.3778c0.00448 0.02943 0.010237 0.05886 0.016636 0.08702 0.13948-0.0627 0.26745-0.151 0.3775-0.26105 0.23994-0.23994 0.37494-0.56561 0.37494-0.90472v-3.5312c-0.58992-0.58289-1.1734-1.1722-1.7506-1.7679z"
     style="fill:#664e79;stroke-width:.63983"
     id="path10" />
  <path
     d="M 3.5765,7.3147 C 3.493962,5.7375 7.7476,2.5339 9.3273,2.5339 h 1.9643 c 1.5797,0 5.8333,3.2036 5.7508,4.7808 -0.0787,1.4959 -0.1574,2.9938 -0.21754,4.1339 -0.06846,1.304 -0.46836,2.5683 -1.1613,3.6745 -0.32247,0.51442 -0.68334,1.0903 -1.0295,1.6424 -0.93735,1.4959 -2.5785,2.4038 -4.3438,2.4038 -1.7851,0 -3.4416,-0.92711 -4.3758,-2.448 C 5.57919,16.17424 5.23048,15.6067 4.91952,15.1006 4.24962,14.0084 3.86312,12.7659 3.79602,11.4862 3.735876,10.3422 3.65654,8.8271 3.57656,7.3145 Z"
     style="fill:#827599;stroke-width:0.63983"
     id="path11"
     sodipodi:nodetypes="cssccccsccccc" />
  <path
     d="M 9.0169,9.4709 C 9.0169,9.32822 8.959955,9.19129 8.85886,9.0902 8.75777,8.98911 8.62084,8.93216 8.47816,8.93216 h -2.6604 c -0.2425,0 -0.46388,0.13692 -0.57201,0.35383 -0.10877,0.2169 -0.085097,0.47603 0.060144,0.6699 0.26361,0.35191 0.54769,0.73069 0.7678,1.0237 0.10173,0.13564 0.4456777,0.22522 0.6139577,0.24953 0.16764,0.02367 0.33847,-0.01983 0.47411,-0.12157 C 7.7977517,10.63088 8.641954,9.85345 8.936254,9.63215 8.986801,9.5944 9.016873,9.53489 9.016873,9.47155 Z m 2.5593,-0.0058 c 0,-0.29432 0.23866,-0.53298 0.53298,-0.53298 h 2.6662 c 0.2425,0 0.46388,0.13692 0.57201,0.35383 0.10877,0.2169 0.0851,0.47603 -0.06014,0.6699 -0.26361,0.35191 -0.5477,0.73069 -0.7678,1.0237 -0.10173,0.13564 -0.445678,0.22522 -0.613958,0.24953 -0.16764,0.02367 -0.33847,-0.01983 -0.47411,-0.12157 -0.63215,-0.47412 -1.468692,-1.2458 -1.770092,-1.4716 -0.05375,-0.04031 -0.0851,-0.10365 -0.0851,-0.1702 v -6.4e-4 z"
     style="stroke-width:0.63983"
     id="path12"
     sodipodi:nodetypes="ccsscccccccccssccccccscc" />
  <path
     d="m3.5765 7.3147c-0.082538-1.5772 0.48627-3.1198 1.5733-4.2658 1.0877-1.1459 2.5977-1.7947 4.1775-1.7947h1.9643c1.5797 0 3.0897 0.64879 4.1775 1.7947 1.0871 1.1459 1.6559 2.6886 1.5733 4.2658-0.08254 1.5695-0.16508 3.1416-0.22586 4.2997-0.06334 1.1952-0.42933 2.3546-1.0653 3.3687-0.34359 0.54834-0.739 1.1792-1.1171 1.7826-0.93735 1.4959-2.5785 2.4038-4.3438 2.4038-1.7851 0-3.4416-0.92711-4.3758-2.448-0.36662-0.5976-0.74796-1.2195-1.08-1.7595-0.61424-1.0007-0.96806-2.1396-1.0301-3.313-0.060784-1.1613-0.14396-2.7487-0.22778-4.3342z"
     style="fill:none;stroke-width:.63983"
     id="path13" />
  <g
     transform="matrix(.63983 0 0 .63983 .059322 -.025424)"
     clip-path="url(#b)"
     id="g14">
    <path
       d="m16 10-3-3v6c-1.657 0-3-1.343-3-3v-1l-3 10-2-2.5v-15.5h22v15.5l-2 2.5-3-10v1.002c0 0.795-0.316 1.558-0.878 2.12s-1.325 0.878-2.12 0.878h-2e-3v-6z"
       style="fill:#e6e6e6"
       id="path14" />
  </g>
  <path
     id="path15"
     style="fill:#54396a;stroke-width:0.63983"
     d="m 9.1113281,12.509766 c -0.2838463,0.303812 -0.1339684,0.511401 0.2265625,0.628906 0.5787786,0.332004 1.3409204,0.421347 1.8984374,0.0059 0.548414,0.129471 0.448099,-0.938353 0.0078,-0.55664 -0.573855,0.45833 -1.450971,0.486244 -1.9511722,-0.0957 -0.059983,0.0049 -0.1637253,-0.158592 -0.1816407,0.01758 z m 2.7871099,2.826172 c -1.240916,0.348117 -2.5573489,0.276083 -3.7617192,-0.169922 -0.4696258,-0.322557 -0.9110546,0.343315 -0.281418,0.457281 1.1581183,0.269285 2.3485212,0.598744 3.5437102,0.310412 0.560733,-0.141954 1.251777,-0.206024 1.690833,-0.554803 -0.04074,-0.609836 -0.872214,-0.02442 -1.191406,-0.04297 z"
     sodipodi:nodetypes="cccccccsccccss" />
  <path
     id="path16"
     style="fill:#d4aa00;fill-opacity:1;stroke-width:0.63983"
     d="M 7.953125,9.5214844 C 7.2516267,9.6378075 6.5209584,9.3922909 5.8359375,9.5898438 6.0285963,9.9857992 6.3354004,10.575032 6.8125,10.589844 7.3110793,10.283627 7.7144394,9.8238689 8.1972656,9.4921875 8.1158793,9.4868618 8.0344811,9.5172139 7.953125,9.5214844 Z m 6.404297,-0.00781 c -0.623119,0.072613 -1.250487,-0.013734 -1.875,0.017578 0.47686,0.3425114 0.881966,0.945832 1.458984,1.058594 0.402329,-0.204362 0.631994,-0.6588708 0.84375,-1.0292971 -0.134223,-0.0598 -0.284944,-0.047522 -0.427734,-0.046875 z" />
</svg>
