<?xml version="1.0" encoding="UTF-8" standalone="no"?>
<svg
   version="1.1"
   viewBox="0 0 20 20"
   id="svg13"
   sodipodi:docname="subrace_elf.svg"
   inkscape:version="1.4.2 (ebf0e940, 2025-05-08)"
   xmlns:inkscape="http://www.inkscape.org/namespaces/inkscape"
   xmlns:sodipodi="http://sodipodi.sourceforge.net/DTD/sodipodi-0.dtd"
   xmlns="http://www.w3.org/2000/svg"
   xmlns:svg="http://www.w3.org/2000/svg">
  <sodipodi:namedview
     id="namedview13"
     pagecolor="#ffffff"
     bordercolor="#000000"
     borderopacity="0.25"
     inkscape:showpageshadow="2"
     inkscape:pageopacity="0.0"
     inkscape:pagecheckerboard="0"
     inkscape:deskcolor="#d1d1d1"
     inkscape:zoom="14.707821"
     inkscape:cx="11.354503"
     inkscape:cy="9.5187451"
     inkscape:window-width="1512"
     inkscape:window-height="831"
     inkscape:window-x="0"
     inkscape:window-y="38"
     inkscape:window-maximized="1"
     inkscape:current-layer="g13" />
  <defs
     id="defs1">
    <style
       type="text/css"
       id="style1">.str0 {stroke:black;stroke-width:8.46}
    .fil0 {fill:none}
    .fil1 {fill:black}</style>
  </defs>
  <g
     id="g13">
    <path
       d="m 0.31986,10.19261 1.7703,1.791 5.3432,7.2655 4.4742,0.77724 6.0836,-7.9414 1.9957,-1.7572 -1.9313,-0.13517 -2.2854,-5.9138 -2.8004,-1.5545 -3.6695,-0.16897 -3.4119,0.10138 -2.9613,5.711 -0.45063,1.6559 -0.41845,0.20276 z"
       style="fill:#e9c6af;fill-rule:evenodd"
       id="path1" />
    <path
       d="m 5.6465,4.37651 4.5749,2.9869 5.2577,-3.0825 0.40969,0.64517 -5.6901,3.3692 -5.508,-3.3454 z"
       style="fill:#008000;fill-rule:evenodd"
       id="path2" />
    <path
       d="m 12.29026,8.89765 c -0.360697,-0.05523 -0.66038,0.31045 -0.66038,0.69331 0,0.38286 0.29548,0.69284 0.66038,0.69284 0.479849,0 1.099019,-1.217881 0,-1.38615 z"
       style="fill:#000000;stroke-width:0.22798"
       id="path3"
       sodipodi:nodetypes="ssss" />
    <path
       d="M 18.564,10.01791 C 18.48946,9.75278 18.38578,9.50097 18.2565,9.26644 c 0.2828,-0.51227 0.44433,-1.1075 0.44433,-1.7426 0,-0.30624 -0.03804,-0.60361 -0.10858,-0.88696 -0.07765,-0.31045 -0.19513,-0.60384 -0.34621,-0.87387 -2.8865,-6.66649992 -7.9653,-4.0734 -7.9653,-4.0734 h -0.18045 c 0,0 -5.0788,-2.59309992 -7.9657,4.0734 C 1.98329,6.03304 1.86626,6.32644 1.7886,6.63688 1.717846,6.92023 1.6798,7.21759 1.6798,7.52384 c 0,0.63514 0.16198,1.2303 0.44411,1.7426 -0.12905,0.23453 -0.23229,0.48634 -0.30727,0.75147 h -1.7141 l 0.21315,0.28896 c 0.25454,0.34595 0.79254,1.0182 1.4563,1.5146 0.075427,0.33077 0.19424,0.64355 0.35222,0.92994 -0.28235,0.51274 -0.44411,1.1077 -0.44411,1.7426 0,0.89583 0.32173,1.7122 0.85062,2.3299 -0.52888,0.61739 -0.85062,1.4343 -0.85062,2.3296 0,1.9246 1.4865,3.4855 3.3197,3.4855 h 10.382 c 1.8336,0 3.3197,-1.5609 3.3197,-3.4855 0,-0.89537 -0.32151,-1.7122 -0.85084,-2.3296 0.52933,-0.61762 0.85084,-1.434 0.85084,-2.3299 0,-0.63491 -0.16176,-1.2299 -0.44433,-1.7426 0.1464,-0.26536 0.25944,-0.55338 0.33531,-0.85706 0.7091,-0.50176 1.2889,-1.2243 1.5562,-1.5877 l 0.21315,-0.28896 h -1.7974 z M 0.808,10.37648 h 2.0715 c 0.090113,0.04999 0.15708,0.08806 0.19402,0.10932 l 1.2155,1.1313 c -0.2403,0.33124 -0.51842,0.48611 -0.86641,0.48611 -0.10991,0 -0.22806,-0.01588 -0.35177,-0.04812 L 2.76869,11.97684 c -0.79566,-0.27938 -1.535,-1.072 -1.9607,-1.6004 z m 5.2517,-5.3834 4.1423,2.5438 4.0864,-2.5093 c 0.13394,0.12614 0.25899,0.24761 0.3738,0.363 L 10.202,8.12928 5.7073,5.36918 C 5.82567,5.23463 5.94382,5.10896 6.05974,4.99309 Z m 4.1087,-0.6557 h 0.0445 c 1.4289,-1.5389 2.8073,-0.92083 3.7945,0.013081 l 0.23407,0.29059 -4.0395,2.4805 -4.0548,-2.4901 0.2265,-0.28101 c 0.98701,-0.93414 2.3656,-1.552 3.7947,-0.013081 z m 4.4571,9.7388 -3.323731,1.9484 c 0,0.0039 6.67e-4,0.0075 6.67e-4,0.01191 v 2.5413 c 0,0.24037 -0.18601,0.43542 -0.41474,0.43542 H 9.5087478 c -0.22917,0 -0.41496,-0.19505 -0.41496,-0.43542 v -2.5413 c 0,-0.01612 8.903e-4,-0.03201 0.00241,-0.04766 l -3.2772308,-1.937 -0.63212,-1.4567 0.12927,-6.9333 0.06319,-0.078721 4.7392,2.9106 h 0.16732 l 4.7234,-2.9008 0.05563,0.06891 0.12594,6.7593 z m 3.0694,-2.0993 -0.30238,0.07825 c -0.12326,0.03223 -0.24186,0.04812 -0.35155,0.04812 -0.34777,0 -0.62567,-0.15487 -0.86641,-0.48611 l 1.2153,-1.1313 c 0.03693,-0.02126 0.10391,-0.05933 0.19424,-0.10932 h 2.0712 c -0.42542,0.52839 -1.165,1.321 -1.9604,1.6004 z"
       style="fill:#000000;stroke-width:0.22798"
       id="path4"
       sodipodi:nodetypes="ccsccccccsccccccscsssscsccccccccccscccccccccccccccccccccccsssssscccccccccccccscccccc" />
    <path
       d="m 7.8179,8.89761 c -1.0662604,0.360577 -0.5319352,1.385899 2.12e-4,1.385899 0.36468,0 0.66038,-0.31045 0.66038,-0.69284 -2.193e-4,-0.38263 -0.29592,-0.69307 -0.6606,-0.69307 z"
       style="fill:#000000;stroke-width:0.22798"
       id="path5"
       sodipodi:nodetypes="csccc" />
    <path
       d="M 5.3797,1.5646001 2.4072,5.3762 2.309055,7.4415 Z"
       style="fill:#de8787;fill-rule:evenodd"
       id="path6" />
    <path
       d="m 2.3462,5.92971 -0.59177,1.7444 0.40969,2.0789 z"
       style="fill:#008000;fill-rule:evenodd"
       id="path7" />
    <path
       d="m 5.123,3.94641 c 0,0 0.79662,-1.601 1.707,-1.7444 0.91042,-0.14337 1.9574,0.023895 1.9574,0.023895 0,0 -1.9119,0.40622 -2.3216,0.69297 -0.40969,0.28674 -1.3429,1.0275 -1.3429,1.0275 z"
       style="fill:#008000;fill-rule:evenodd"
       id="path8" />
    <path
       d="M 14.812,1.2819602 17.8578,5.02916 17.996,7.09196 Z"
       style="fill:#de8787;fill-rule:evenodd"
       id="path9" />
    <path
       d="m 17.994,5.73171 0.59177,1.7444 -0.40969,2.0789 z"
       style="fill:#008000;fill-rule:evenodd"
       id="path10" />
    <path
       d="m 14.921,3.93961 c 0,0 -0.79662,-1.601 -1.707,-1.7444 -0.91042,-0.14337 -1.9574,0.023895 -1.9574,0.023895 0,0 1.9119,0.40622 2.3216,0.69297 0.40969,0.28674 1.3429,1.0275 1.3429,1.0275 z"
       style="fill:#008000;fill-rule:evenodd"
       id="path11" />
    <path
       d="m 18.172,4.72471 c 0,0 0.32576,-0.48587 0.14712,-0.52527 C 18.03386,4.136528 17.66118,4.187594 17.31452,4.35964 17.11045,4.46101 16.94306,4.59051 16.82263,4.73041 16.86056,4.56925 16.86257,4.38885 16.82093,4.2042 16.74422,3.8647 16.53835,3.59111 16.2889,3.45378 c -0.14959,-0.082639 -0.35827,0.4468 -0.35827,0.4468 0,0 -0.42876,-0.40686 -0.5317,-0.27135 -0.16376,0.21573 -0.23028,0.53574 -0.15481,0.86983 0.04343,0.19222 0.1281,0.36319 0.23861,0.49998 -0.17678,-0.095057 -0.39961,-0.16118 -0.64721,-0.1826 -0.39994,-0.034695 -0.76973,0.055336 -1.004,0.22104 -0.14076,0.099124 0.37431,0.42212 0.37431,0.42212 0,0 -0.59043,0.23457 -0.47579,0.3576 0.18448,0.19632 0.51494,0.34277 0.90883,0.3769 0.24357,0.021045 0.47473,-0.00412 0.6717,-0.064093 -0.15463,0.11639 -0.29277,0.27371 -0.39304,0.46177 -0.1709,0.31808 -0.19386,0.64744 -0.08912,0.88689 0.06331,0.14336 0.59022,-0.18599 0.59022,-0.18599 0,0 0.0635,0.55191 0.23754,0.49233 0.2774,-0.0942 0.54868,-0.32326 0.71677,-0.63631 0.09989,-0.18686 0.14963,-0.37731 0.15171,-0.55158 0.07731,0.1588 0.20496,0.31608 0.37764,0.4514 0.29494,0.23097 0.65022,0.34462 0.94958,0.32696 0.17924,-0.010384 -0.0101,-0.5365 -0.0101,-0.5365 0,0 0.6298,0.10571 0.62271,-0.053804 -0.01277,-0.2544 -0.176,-0.54273 -0.46566,-0.77074 -0.16779,-0.13116 -0.35468,-0.22488 -0.54035,-0.27763 0.20412,-0.016724 0.42353,-0.076384 0.63406,-0.18121 0.35255,-0.17535 0.59522,-0.43468 0.67499,-0.68436 0.04827,-0.15068 -0.59554,-0.14654 -0.59554,-0.14654 z m -1.0251,0.64317 c -0.01835,0.00908 -0.03755,0.014357 -0.05672,0.016815 -0.039,0.00503 -0.07903,-0.00328 -0.10991,-0.023467 l -0.27505,0.13665 -0.07086,0.035824 c 0.0048,0.012099 0.009,0.024851 0.01188,0.037846 0.01785,0.079055 -0.0026,0.15737 -0.04938,0.22143 l 0.0425,0.033813 0.24692,0.19311 c 0.03646,-0.013587 0.07688,-0.014941 0.11362,-0.00375 0.01837,0.0056 0.03545,0.014251 0.05063,0.026086 0.06246,0.049272 0.06565,0.13333 0.0077,0.18818 C 16.99973,6.285942 16.9021,6.290652 16.83965,6.24138 16.82448,6.229545 16.81271,6.215377 16.80476,6.2005 16.78793,6.169787 16.78583,6.134682 16.79836,6.10238 L 16.55297,5.91011 16.50901,5.876005 c -0.04053,0.027331 -0.0887,0.047061 -0.14173,0.056978 -0.05303,0.00991 -0.10584,0.00907 -0.15494,-0.00151 l -0.02184,0.040202 -0.14587,0.27164 c 0.02541,0.025158 0.0388,0.058208 0.03606,0.092583 -2.51e-4,0.016413 -0.005,0.033649 -0.01372,0.04997 -0.03603,0.067688 -0.12777,0.098388 -0.20561,0.068359 -0.07709,-0.029604 -0.11058,-0.10799 -0.07456,-0.17568 0.0088,-0.016321 0.02077,-0.030408 0.03522,-0.04214 0.02891,-0.02341 0.06732,-0.036857 0.10667,-0.037443 l 0.14473,-0.27086 0.02223,-0.041405 c -0.07069,-0.04203 -0.12345,-0.10672 -0.14131,-0.18577 -0.003,-0.012995 -0.0046,-0.026234 -0.0055,-0.039042 l -0.06312,-0.00569 -0.3295,-0.02868 C 15.5366,5.657148 15.50342,5.679154 15.4654,5.68852 15.44671,5.69315 15.42678,5.69518 15.40598,5.69342 15.32143,5.6861 15.26061,5.620715 15.27107,5.54765 15.28141,5.474044 15.35882,5.42063 15.444,5.42784 c 0.0208,0.00177 0.03979,0.00724 0.05664,0.014804 0.03394,0.016229 0.05971,0.043011 0.07148,0.074674 l 0.32749,0.028491 0.06513,0.00588 c 0.03107,-0.086506 0.1061,-0.15923 0.20658,-0.19495 l -0.07523,-0.333 c -0.0384,-0.00693 -0.07181,-0.026643 -0.0933,-0.05479 -0.01092,-0.01376 -0.01858,-0.029824 -0.02249,-0.04715 -0.01626,-0.072016 0.03881,-0.1427 0.12277,-0.1584 0.08395,-0.0157 0.16522,0.02949 0.18148,0.10151 0.0038,0.017328 0.0037,0.034842 -2.24e-4,0.051398 -0.0076,0.033579 -0.02975,0.063692 -0.06198,0.083828 l 0.07523,0.33301 c 0.10782,-0.00323 0.20828,0.036674 0.27438,0.10502 l 0.07565,-0.037849 0.27024,-0.13462 c -0.0029,-0.033329 0.0091,-0.067178 0.03331,-0.094266 0.01214,-0.01299 0.02729,-0.024854 0.04563,-0.033927 0.07521,-0.037204 0.16881,-0.015765 0.21022,0.048162 0.04199,0.063256 0.01444,0.14516 -0.06009,0.18223 z"
       style="fill:#ff5555;stroke:#000000;stroke-width:0.23693"
       id="path12" />
    <rect
       style="fill:#1a1a1a;stroke-width:2.37179;stroke-linecap:round;stroke-linejoin:round"
       id="rect1"
       width="2.1634617"
       height="0.48076925"
       x="9.1346149"
       y="12.843373" />
  </g>
</svg>
