<svg width="20" height="20" xmlns="http://www.w3.org/2000/svg" xmlns:svg="http://www.w3.org/2000/svg" version="1.1">
 <g class="layer">
  <title>Layer 1</title>
  <ellipse cx="9.9" cy="10" fill="none" id="svg_2" rx="8.9" ry="8.9" stroke="#ff5656" stroke-width="2"/>
  <path d="m8.9,3.91l-3.72,3.72c-0.57,0.57 -0.57,1.5 0,2.06c0.56,0.57 1.5,0.57 2.06,0l1.22,-1.21l0,6.73c0,0.81 0.65,1.46 1.46,1.46c0.8,0 1.45,-0.65 1.45,-1.46l0,-6.73l1.23,1.23c0.56,0.57 1.5,0.57 2.06,0c0.29,-0.29 0.43,-0.65 0.43,-1.02s-0.14,-0.75 -0.43,-1.02l-3.73,-3.73c-0.28,-0.29 -0.63,-0.43 -1.02,-0.43c-0.39,0 -0.76,0.15 -1.03,0.43l0,-0.02z" fill="#ff5656" id="svg_1" stroke-width="0.21"/>
 </g>
</svg>
