<?xml version="1.0" encoding="UTF-8" standalone="no"?>
<svg
   viewBox="0 0 20 20"
   x="0px"
   y="0px"
   fill="#2ca2c6"
   version="1.1"
   id="svg1"
   width="20"
   height="20"
   xmlns="http://www.w3.org/2000/svg"
   xmlns:svg="http://www.w3.org/2000/svg"
   xmlns:rdf="http://www.w3.org/1999/02/22-rdf-syntax-ns#"
   xmlns:cc="http://creativecommons.org/ns#"
   xmlns:dc="http://purl.org/dc/elements/1.1/">
  <defs
     id="defs1" />
  <title
     id="title1">Artboard 1</title>
  <path
     d="m 7.6305738,10.700836 c -1.9066417,-0.08463 -3.5934081,-0.29162 -5.4735165,-0.6197 -0.1865294,-0.02914 -0.3553317,0.114388 -0.3565659,0.303176 v 6.207738 c -1.02e-5,1.265247 1.0228879,2.292407 2.2881242,2.297657 H 15.91059 c 1.265237,-0.0053 2.288135,-1.03241 2.288125,-2.297657 v -6.207738 c -6.64e-4,-0.191517 -0.173651,-0.336279 -0.362286,-0.303176 -1.880152,0.32743 -3.566917,0.533785 -5.473517,0.617792 v 0.01337 1.302594 c 0,0.836144 -0.677831,0.800331 -1.513975,0.800331 H 9.1445493 c -0.836143,0 -1.5139718,0.03582 -1.5139755,-0.800327 v -1.300685 -0.01337 z M 0.8471061,9.3100949 V 7.0772661 C 0.84710582,6.0652563 1.6675014,5.24486 2.6795112,5.2448594 H 5.9858511 V 3.8395703 c 2e-7,-1.2952885 1.050039,-2.3453272 2.3453275,-2.3453273 h 3.3387554 c 1.295288,3e-7 2.345327,1.050039 2.345327,2.3453273 v 1.4052891 h 3.304434 c 1.01201,7e-7 1.832405,0.820397 1.832405,1.8324067 V 9.3100949 C 19.152856,9.6012817 18.948973,9.8529504 18.663967,9.912634 15.811859,10.4874 12.909039,10.772955 9.999603,10.76496 7.0901674,10.772955 4.1873474,10.4874 1.3352389,9.912634 1.0502333,9.8529503 0.84634992,9.6012817 0.8471061,9.3100949 Z M 7.9402914,5.2448594 h 4.1186236 v -1.403383 c 0,-0.2106159 -0.170738,-0.3813538 -0.381354,-0.3813538 H 8.3292726 c -0.2106159,10e-8 -0.3813538,0.1707379 -0.3813539,0.3813538 z"
     id="path1"
     style="stroke:#ffffff;stroke-width:1.12955;stroke-dasharray:none;stroke-opacity:1" />
  <metadata
     id="metadata1">
    <rdf:RDF>
      <cc:Work
         rdf:about="">
        <dc:title>Artboard 1</dc:title>
      </cc:Work>
    </rdf:RDF>
  </metadata>
</svg>
