<?xml version="1.0" encoding="UTF-8" standalone="no"?>
<svg
   version="1.1"
   viewBox="0 0 20 20"
   id="svg2"
   xmlns="http://www.w3.org/2000/svg"
   xmlns:svg="http://www.w3.org/2000/svg">
  <path
     d="m1.1736 1.0942a2.7116 2.7116 0 0 0-0.27918 0.31513 0.16717 0.16717 0 0 0 0.17512 0.26413h0.00418a3.0952 3.0952 0 0 1 3.5654 1.8448l0.013374 0.032599a0.69628 0.69628 0 0 0 0.64529 0.42713h10.722a0.8484 0.8484 0 0 0 0.43256-0.78613c-0.035107-0.6152-0.18097-1.4356-0.64905-2.0951a1.8347 1.8347 0 0 0-1.5008-0.75646h-11.198c-0.71759-0.0016744-1.4168 0.25995-1.9305 0.75395z"
     style="fill:#806600;stroke-width:.58018;stroke:#ffffff" />
  <rect
     x="6.9261"
     y="5.9838"
     width="7.9898"
     height="11.063"
     style="fill:#ffffff" />
  <path
     d="M 18.974,13.452 C 18.36298,12.0051 16.7426,8.3378 14.8022,5.2881 14.616456,4.9998216 14.296301,4.8264244 13.95337,4.82837 h -8.655 C 4.6654712,4.8343457 4.0930735,4.4533087 3.85437,3.86712 L 3.843921,3.841627 c -0.41793,-1.0064 -1.5225,-1.5823 -2.5728,-1.3374 h -0.00961 c -0.57640415,0.1299577 -0.96876227,0.6649876 -0.91946,1.2538 0.015882,0.16717 0.041793,0.34688 0.075646,0.53328 0.0611375,0.3165596 0.17878514,0.6195215 0.34731,0.89438 0.4242,0.69711 1.3905,2.3221 2.4407,4.3415 0.94996,1.5493 2.9882,5.0528 3.0329,6.6677 0.016717,0.60558 -0.17052,1.0653 -0.57299,1.4051 -0.2172086,0.184767 -0.4926114,0.287029 -0.77777,0.2888 -0.26915,0 -0.59304,-0.09028 -0.96125,-0.35775 -0.4684452,-0.333032 0.039961,-1.032942 0.50152,-0.69043 0.43548,0.3193 0.60642,0.17469 0.67914,0.11326 0.14879,-0.12538 0.28461,-0.30133 0.27249,-0.73598 v -0.0072 c -0.017632,-0.556558 -0.4806108,-0.99486 -1.0373,-0.98201 H 4.323639 c -0.5097215,0.009 -0.9907729,0.237493 -1.3198,0.6269 -0.1242818,0.150477 -0.228131,0.31672 -0.30885,0.49441 -0.62189,1.3708 0.23738,2.9456 1.7231,3.2586 0.4462798,0.08946 0.9006661,0.132182 1.3558,0.12747 h 10.521 c 0,0 3.924,0.17469 3.2327,-4.3548 -0.103947,-0.663477 -0.289813,-1.311494 -0.55334,-1.9292 z"
     style="fill:#806600;stroke:#ffffff;stroke-width:0.58018" />
</svg>
