<svg width="32" height="32" xmlns="http://www.w3.org/2000/svg" xmlns:svg="http://www.w3.org/2000/svg">
 <g class="layer">
  <title>Layer 1</title>
  <path d="m5,26l0,3c0,0.56 0.45,1 1,1l20,0c0.55,0 1,-0.44 1,-1l0,-3c0,-4.05 -2.2,-7.6 -5.48,-9.5c-0.38,0.3 -0.79,0.56 -1.22,0.79c-0.28,0.15 -0.57,0.28 -0.86,0.4c-1.09,0.44 -2.26,0.67 -3.44,0.67c-1.19,0 -2.36,-0.23 -3.45,-0.67c-0.29,-0.12 -0.57,-0.25 -0.85,-0.39c-0.43,-0.23 -0.84,-0.49 -1.23,-0.79c-3.27,1.9 -5.47,5.44 -5.47,9.49z" id="svg_1" fill="white"/>
  <circle cx="16" cy="9.18" id="svg_2" r="7.18" fill="white"/>
 </g>
</svg>